<svg xmlns="http://www.w3.org/2000/svg" xmlns:xlink="http://www.w3.org/1999/xlink" version="1.1" x="0px" y="0px" viewBox="0 0 48 60" style="enable-background:new 0 0 48 48;" xml:space="preserve"><path d="M25,21.7h8.7c2.8,0,5-2.3,5-5c0-0.6-0.4-1-1-1s-1,0.4-1,1c0,1.7-1.4,3-3,3H25v-7.8h8.7c2.8,0,5-2.3,5-5c0-0.6-0.4-1-1-1  s-1,0.4-1,1c0,1.7-1.4,3-3,3H25V1c0-0.6-0.4-1-1-1s-1,0.4-1,1v3.9h-8.7c-1.7,0-3-1.4-3-3c0-0.6-0.4-1-1-1s-1,0.4-1,1  c0,2.8,2.3,5,5,5H23v7.8h-8.7c-1.7,0-3-1.4-3-3c0-0.6-0.4-1-1-1s-1,0.4-1,1c0,2.8,2.3,5,5,5H23v7.8h-8.7c-1.7,0-3-1.4-3-3  c0-0.6-0.4-1-1-1s-1,0.4-1,1c0,2.8,2.3,5,5,5H23v14.3h-5.4c-3.4,0-6.1,2.8-6.1,6.1c0,0.6,0.4,1,1,1s1-0.4,1-1c0-2.3,1.9-4.1,4.1-4.1  h14.3c2.3,0,4.1,1.9,4.1,4.1c0,0.6,0.4,1,1,1s1-0.4,1-1c0-3.4-2.8-6.1-6.1-6.1H25v-9.3h8.7c2.8,0,5-2.3,5-5c0-0.6-0.4-1-1-1  s-1,0.4-1,1c0,1.7-1.4,3-3,3H25V21.7z"/><text x="0" y="63" fill="#000000" font-size="5px" font-weight="bold" font-family="'Helvetica Neue', Helvetica, Arial-Unicode, Arial, Sans-serif">Created by Vectors Market</text><text x="0" y="68" fill="#000000" font-size="5px" font-weight="bold" font-family="'Helvetica Neue', Helvetica, Arial-Unicode, Arial, Sans-serif">from the Noun Project</text></svg>